  0
SECTION
  2
HEADER
  9
$ANGBASE
  50
0.0
  9
$ANGDIR
  70
1
  9
$MEASUREMENT
  70
0
  0
ENDSEC
  0
SECTION
  2
TABLES
  0
TABLE
  2
LTYPE
  70
4
  0
LTYPE
  5
40F
  2
CONTINUOUS
  70
0
  3
Solid line
  72
65
  73
0
  40
0.0
  0
LTYPE
  5
410
  2
DASHDOT
 70
0
  3
Dash Dot ____ _ ____ _
 72
65
 73
4
 40
2.0
 49
1.25
 49
-0.25
 49
0.25
 49
-0.25
  0
LTYPE
  5
411
  2
DASHED
 70
0
  3
Dashed __ __ __ __ __
 72
65
 73
2
 40
0.75
 49
0.5
 49
-0.25
  0
LTYPE
  5
43B
  2
DOTTED
 70
0
  3
Dotted .  .  .  .
 72
65
 73
2
 40
0.2
 49
0.0
 49
-0.2
  0
ENDTAB
  0
TABLE
  2
STYLE
  70
4
  0
STYLE
  2
KICAD
  70
0
  40
0
  41
1
  42
1
  50
0
  71
0
  3
isocp.shx
  0
STYLE
  2
KICADB
  70
0
  40
0
  41
1
  42
1
  50
0
  71
0
  3
isocp.shx
  0
STYLE
  2
KICADI
  70
0
  40
0
  41
1
  42
1
  50
15
  71
0
  3
isocp.shx
  0
STYLE
  2
KICADBI
  70
0
  40
0
  41
1
  42
1
  50
15
  71
0
  3
isocp.shx
  0
ENDTAB
  0
TABLE
  2
LAYER
  70
1
  0
LAYER
  2
BLACK
  70
0
  62
7
  6
CONTINUOUS
  0
ENDTAB
  0
ENDSEC
  0
SECTION
  2
ENTITIES
0
LINE
8
BLACK
6
CONTINUOUS
10
2.2934726771653544
20
-6.7084648031496066
11
2.3032343700787403
21
-6.7108083858267715
0
LINE
8
BLACK
6
CONTINUOUS
10
2.3032343700787403
20
-6.7108083858267715
11
2.3125092519685038
21
-6.7146501574803148
0
LINE
8
BLACK
6
CONTINUOUS
10
2.3125092519685038
20
-6.7146501574803148
11
2.3210689370078739
21
-6.7198955511811018
0
LINE
8
BLACK
6
CONTINUOUS
10
2.3210689370078739
20
-6.7198955511811018
11
2.328702716535433
21
-6.7264153937007869
0
LINE
8
BLACK
6
CONTINUOUS
10
2.328702716535433
20
-6.7264153937007869
11
2.3352225590551181
21
-6.7340491732283461
0
LINE
8
BLACK
6
CONTINUOUS
10
2.3352225590551181
20
-6.7340491732283461
11
2.3404679527559056
21
-6.7426088582677162
0
LINE
8
BLACK
6
CONTINUOUS
10
2.3404679527559056
20
-6.7426088582677162
11
2.3443097244094488
21
-6.7518837401574805
0
LINE
8
BLACK
6
CONTINUOUS
10
2.3443097244094488
20
-6.7518837401574805
11
2.3466533070866142
21
-6.761645433070866
0
LINE
8
BLACK
6
CONTINUOUS
10
2.3466533070866142
20
-6.761645433070866
11
2.3474409448818898
21
-6.7716535433070861
0
LINE
8
BLACK
6
CONTINUOUS
10
2.3474409448818898
20
-6.7716535433070861
11
2.3466533070866142
21
-6.7816616535433072
0
LINE
8
BLACK
6
CONTINUOUS
10
2.3466533070866142
20
-6.7816616535433072
11
2.3443097244094488
21
-6.7914233464566927
0
LINE
8
BLACK
6
CONTINUOUS
10
2.3443097244094488
20
-6.7914233464566927
11
2.3404679527559056
21
-6.8006982283464561
0
LINE
8
BLACK
6
CONTINUOUS
10
2.3404679527559056
20
-6.8006982283464561
11
2.3352225590551181
21
-6.8092579133858262
0
LINE
8
BLACK
6
CONTINUOUS
10
2.3352225590551181
20
-6.8092579133858262
11
2.328702716535433
21
-6.8168916929133854
0
LINE
8
BLACK
6
CONTINUOUS
10
2.328702716535433
20
-6.8168916929133854
11
2.3210689370078739
21
-6.8234115354330704
0
LINE
8
BLACK
6
CONTINUOUS
10
2.3210689370078739
20
-6.8234115354330704
11
2.3125092519685038
21
-6.8286569291338584
0
LINE
8
BLACK
6
CONTINUOUS
10
2.3125092519685038
20
-6.8286569291338584
11
2.3032343700787403
21
-6.8324987007874016
0
LINE
8
BLACK
6
CONTINUOUS
10
2.3032343700787403
20
-6.8324987007874016
11
2.2934726771653544
21
-6.8348422834645666
0
LINE
8
BLACK
6
CONTINUOUS
10
2.2934726771653544
20
-6.8348422834645666
11
2.2834645669291338
21
-6.8356299212598426
0
LINE
8
BLACK
6
CONTINUOUS
10
2.2834645669291338
20
-6.8356299212598426
11
2.2734564566929132
21
-6.8348422834645666
0
LINE
8
BLACK
6
CONTINUOUS
10
2.2734564566929132
20
-6.8348422834645666
11
2.2636947637795277
21
-6.8324987007874016
0
LINE
8
BLACK
6
CONTINUOUS
10
2.2636947637795277
20
-6.8324987007874016
11
2.2544198818897638
21
-6.8286569291338584
0
LINE
8
BLACK
6
CONTINUOUS
10
2.2544198818897638
20
-6.8286569291338584
11
2.2458601968503937
21
-6.8234115354330704
0
LINE
8
BLACK
6
CONTINUOUS
10
2.2458601968503937
20
-6.8234115354330704
11
2.2382264173228346
21
-6.8168916929133854
0
LINE
8
BLACK
6
CONTINUOUS
10
2.2382264173228346
20
-6.8168916929133854
11
2.2317065748031495
21
-6.8092579133858262
0
LINE
8
BLACK
6
CONTINUOUS
10
2.2317065748031495
20
-6.8092579133858262
11
2.226461181102362
21
-6.8006982283464561
0
LINE
8
BLACK
6
CONTINUOUS
10
2.226461181102362
20
-6.8006982283464561
11
2.2226194094488188
21
-6.7914233464566927
0
LINE
8
BLACK
6
CONTINUOUS
10
2.2226194094488188
20
-6.7914233464566927
11
2.2202758267716534
21
-6.7816616535433072
0
LINE
8
BLACK
6
CONTINUOUS
10
2.2202758267716534
20
-6.7816616535433072
11
2.2194881889763778
21
-6.7716535433070861
0
LINE
8
BLACK
6
CONTINUOUS
10
2.2194881889763778
20
-6.7716535433070861
11
2.2202758267716534
21
-6.761645433070866
0
LINE
8
BLACK
6
CONTINUOUS
10
2.2202758267716534
20
-6.761645433070866
11
2.2226194094488188
21
-6.7518837401574805
0
LINE
8
BLACK
6
CONTINUOUS
10
2.2226194094488188
20
-6.7518837401574805
11
2.226461181102362
21
-6.7426088582677162
0
LINE
8
BLACK
6
CONTINUOUS
10
2.226461181102362
20
-6.7426088582677162
11
2.2317065748031495
21
-6.7340491732283461
0
LINE
8
BLACK
6
CONTINUOUS
10
2.2317065748031495
20
-6.7340491732283461
11
2.2382264173228346
21
-6.7264153937007869
0
LINE
8
BLACK
6
CONTINUOUS
10
2.2382264173228346
20
-6.7264153937007869
11
2.2458601968503937
21
-6.7198955511811018
0
LINE
8
BLACK
6
CONTINUOUS
10
2.2458601968503937
20
-6.7198955511811018
11
2.2544198818897638
21
-6.7146501574803148
0
LINE
8
BLACK
6
CONTINUOUS
10
2.2544198818897638
20
-6.7146501574803148
11
2.2636947637795277
21
-6.7108083858267715
0
LINE
8
BLACK
6
CONTINUOUS
10
2.2636947637795277
20
-6.7108083858267715
11
2.2734564566929132
21
-6.7084648031496066
0
LINE
8
BLACK
6
CONTINUOUS
10
2.2734564566929132
20
-6.7084648031496066
11
2.2834645669291338
21
-6.7076771653543306
0
LINE
8
BLACK
6
CONTINUOUS
10
2.2834645669291338
20
-6.7076771653543306
11
2.2934726771653544
21
-6.7084648031496066
0
LINE
8
BLACK
6
CONTINUOUS
10
2.222030748031496
20
-6.7813837007874014
11
2.224309212598425
21
-6.7908742913385822
0
LINE
8
BLACK
6
CONTINUOUS
10
2.224309212598425
20
-6.7908742913385822
11
2.2280443307086615
21
-6.7998915748031497
0
LINE
8
BLACK
6
CONTINUOUS
10
2.2280443307086615
20
-6.7998915748031497
11
2.2331440157480316
21
-6.8082135433070867
0
LINE
8
BLACK
6
CONTINUOUS
10
2.2331440157480316
20
-6.8082135433070867
11
2.2394827952755905
21
-6.8156353149606295
0
LINE
8
BLACK
6
CONTINUOUS
10
2.2394827952755905
20
-6.8156353149606295
11
2.2469045669291337
21
-6.8219740944881888
0
LINE
8
BLACK
6
CONTINUOUS
10
2.2469045669291337
20
-6.8219740944881888
11
2.2552265354330707
21
-6.8270737795275593
0
LINE
8
BLACK
6
CONTINUOUS
10
2.2552265354330707
20
-6.8270737795275593
11
2.2642438188976377
21
-6.8308088976377954
0
LINE
8
BLACK
6
CONTINUOUS
10
2.2642438188976377
20
-6.8308088976377954
11
2.273734409448819
21
-6.8330873622047239
0
LINE
8
BLACK
6
CONTINUOUS
10
2.273734409448819
20
-6.8330873622047239
11
2.2834645669291338
21
-6.8338531496062993
0
LINE
8
BLACK
6
CONTINUOUS
10
2.2834645669291338
20
-6.8338531496062993
11
2.2931947244094486
21
-6.8330873622047239
0
LINE
8
BLACK
6
CONTINUOUS
10
2.2931947244094486
20
-6.8330873622047239
11
2.3026853149606299
21
-6.8308088976377954
0
LINE
8
BLACK
6
CONTINUOUS
10
2.3026853149606299
20
-6.8308088976377954
11
2.3117025984251969
21
-6.8270737795275593
0
LINE
8
BLACK
6
CONTINUOUS
10
2.3117025984251969
20
-6.8270737795275593
11
2.3200245669291339
21
-6.8219740944881888
0
LINE
8
BLACK
6
CONTINUOUS
10
2.3200245669291339
20
-6.8219740944881888
11
2.3274463385826771
21
-6.8156353149606295
0
LINE
8
BLACK
6
CONTINUOUS
10
2.3274463385826771
20
-6.8156353149606295
11
2.333785118110236
21
-6.8082135433070867
0
LINE
8
BLACK
6
CONTINUOUS
10
2.333785118110236
20
-6.8082135433070867
11
2.3388848031496061
21
-6.7998915748031497
0
LINE
8
BLACK
6
CONTINUOUS
10
2.3388848031496061
20
-6.7998915748031497
11
2.3426199212598426
21
-6.7908742913385822
0
LINE
8
BLACK
6
CONTINUOUS
10
2.3426199212598426
20
-6.7908742913385822
11
2.3448983858267716
21
-6.7813837007874014
0
LINE
8
BLACK
6
CONTINUOUS
10
2.3448983858267716
20
-6.7813837007874014
11
2.3456641732283465
21
-6.7716535433070861
0
LINE
8
BLACK
6
CONTINUOUS
10
2.3456641732283465
20
-6.7716535433070861
11
2.3448983858267716
21
-6.7619233858267718
0
LINE
8
BLACK
6
CONTINUOUS
10
2.3448983858267716
20
-6.7619233858267718
11
2.3426199212598426
21
-6.75243279527559
0
LINE
8
BLACK
6
CONTINUOUS
10
2.3426199212598426
20
-6.75243279527559
11
2.3388848031496061
21
-6.7434155118110235
0
LINE
8
BLACK
6
CONTINUOUS
10
2.3388848031496061
20
-6.7434155118110235
11
2.333785118110236
21
-6.7350935433070864
0
LINE
8
BLACK
6
CONTINUOUS
10
2.333785118110236
20
-6.7350935433070864
11
2.3274463385826771
21
-6.7276717716535428
0
LINE
8
BLACK
6
CONTINUOUS
10
2.3274463385826771
20
-6.7276717716535428
11
2.3200245669291339
21
-6.7213329921259843
0
LINE
8
BLACK
6
CONTINUOUS
10
2.3200245669291339
20
-6.7213329921259843
11
2.3117025984251969
21
-6.7162333070866138
0
LINE
8
BLACK
6
CONTINUOUS
10
2.3117025984251969
20
-6.7162333070866138
11
2.3026853149606299
21
-6.7124981889763777
0
LINE
8
BLACK
6
CONTINUOUS
10
2.3026853149606299
20
-6.7124981889763777
11
2.2931947244094486
21
-6.7102197244094484
0
LINE
8
BLACK
6
CONTINUOUS
10
2.2931947244094486
20
-6.7102197244094484
11
2.2834645669291338
21
-6.7094539370078738
0
LINE
8
BLACK
6
CONTINUOUS
10
2.2834645669291338
20
-6.7094539370078738
11
2.273734409448819
21
-6.7102197244094484
0
LINE
8
BLACK
6
CONTINUOUS
10
2.273734409448819
20
-6.7102197244094484
11
2.2642438188976377
21
-6.7124981889763777
0
LINE
8
BLACK
6
CONTINUOUS
10
2.2642438188976377
20
-6.7124981889763777
11
2.2552265354330707
21
-6.7162333070866138
0
LINE
8
BLACK
6
CONTINUOUS
10
2.2552265354330707
20
-6.7162333070866138
11
2.2469045669291337
21
-6.7213329921259843
0
LINE
8
BLACK
6
CONTINUOUS
10
2.2469045669291337
20
-6.7213329921259843
11
2.2394827952755905
21
-6.7276717716535428
0
LINE
8
BLACK
6
CONTINUOUS
10
2.2394827952755905
20
-6.7276717716535428
11
2.2331440157480316
21
-6.7350935433070864
0
LINE
8
BLACK
6
CONTINUOUS
10
2.2331440157480316
20
-6.7350935433070864
11
2.2280443307086615
21
-6.7434155118110235
0
LINE
8
BLACK
6
CONTINUOUS
10
2.2280443307086615
20
-6.7434155118110235
11
2.224309212598425
21
-6.75243279527559
0
LINE
8
BLACK
6
CONTINUOUS
10
2.224309212598425
20
-6.75243279527559
11
2.222030748031496
21
-6.7619233858267718
0
LINE
8
BLACK
6
CONTINUOUS
10
2.222030748031496
20
-6.7619233858267718
11
2.2212649606299211
21
-6.7716535433070861
0
LINE
8
BLACK
6
CONTINUOUS
10
2.2212649606299211
20
-6.7716535433070861
11
2.222030748031496
21
-6.7813837007874014
0
LINE
8
BLACK
6
CONTINUOUS
10
4.4194569291338581
20
-6.7084648031496066
11
4.4292186220472436
21
-6.7108083858267715
0
LINE
8
BLACK
6
CONTINUOUS
10
4.4292186220472436
20
-6.7108083858267715
11
4.4384935039370079
21
-6.7146501574803148
0
LINE
8
BLACK
6
CONTINUOUS
10
4.4384935039370079
20
-6.7146501574803148
11
4.447053188976378
21
-6.7198955511811018
0
LINE
8
BLACK
6
CONTINUOUS
10
4.447053188976378
20
-6.7198955511811018
11
4.4546869685039372
21
-6.7264153937007869
0
LINE
8
BLACK
6
CONTINUOUS
10
4.4546869685039372
20
-6.7264153937007869
11
4.4612068110236223
21
-6.7340491732283461
0
LINE
8
BLACK
6
CONTINUOUS
10
4.4612068110236223
20
-6.7340491732283461
11
4.4664522047244093
21
-6.7426088582677162
0
LINE
8
BLACK
6
CONTINUOUS
10
4.4664522047244093
20
-6.7426088582677162
11
4.4702939763779526
21
-6.7518837401574805
0
LINE
8
BLACK
6
CONTINUOUS
10
4.4702939763779526
20
-6.7518837401574805
11
4.4726375590551184
21
-6.761645433070866
0
LINE
8
BLACK
6
CONTINUOUS
10
4.4726375590551184
20
-6.761645433070866
11
4.4734251968503935
21
-6.7716535433070861
0
LINE
8
BLACK
6
CONTINUOUS
10
4.4734251968503935
20
-6.7716535433070861
11
4.4726375590551184
21
-6.7816616535433072
0
LINE
8
BLACK
6
CONTINUOUS
10
4.4726375590551184
20
-6.7816616535433072
11
4.4702939763779526
21
-6.7914233464566927
0
LINE
8
BLACK
6
CONTINUOUS
10
4.4702939763779526
20
-6.7914233464566927
11
4.4664522047244093
21
-6.8006982283464561
0
LINE
8
BLACK
6
CONTINUOUS
10
4.4664522047244093
20
-6.8006982283464561
11
4.4612068110236223
21
-6.8092579133858262
0
LINE
8
BLACK
6
CONTINUOUS
10
4.4612068110236223
20
-6.8092579133858262
11
4.4546869685039372
21
-6.8168916929133854
0
LINE
8
BLACK
6
CONTINUOUS
10
4.4546869685039372
20
-6.8168916929133854
11
4.447053188976378
21
-6.8234115354330704
0
LINE
8
BLACK
6
CONTINUOUS
10
4.447053188976378
20
-6.8234115354330704
11
4.4384935039370079
21
-6.8286569291338584
0
LINE
8
BLACK
6
CONTINUOUS
10
4.4384935039370079
20
-6.8286569291338584
11
4.4292186220472436
21
-6.8324987007874016
0
LINE
8
BLACK
6
CONTINUOUS
10
4.4292186220472436
20
-6.8324987007874016
11
4.4194569291338581
21
-6.8348422834645666
0
LINE
8
BLACK
6
CONTINUOUS
10
4.4194569291338581
20
-6.8348422834645666
11
4.409448818897638
21
-6.8356299212598426
0
LINE
8
BLACK
6
CONTINUOUS
10
4.409448818897638
20
-6.8356299212598426
11
4.3994407086614169
21
-6.8348422834645666
0
LINE
8
BLACK
6
CONTINUOUS
10
4.3994407086614169
20
-6.8348422834645666
11
4.3896790157480314
21
-6.8324987007874016
0
LINE
8
BLACK
6
CONTINUOUS
10
4.3896790157480314
20
-6.8324987007874016
11
4.380404133858268
21
-6.8286569291338584
0
LINE
8
BLACK
6
CONTINUOUS
10
4.380404133858268
20
-6.8286569291338584
11
4.3718444488188979
21
-6.8234115354330704
0
LINE
8
BLACK
6
CONTINUOUS
10
4.3718444488188979
20
-6.8234115354330704
11
4.3642106692913387
21
-6.8168916929133854
0
LINE
8
BLACK
6
CONTINUOUS
10
4.3642106692913387
20
-6.8168916929133854
11
4.3576908267716536
21
-6.8092579133858262
0
LINE
8
BLACK
6
CONTINUOUS
10
4.3576908267716536
20
-6.8092579133858262
11
4.3524454330708657
21
-6.8006982283464561
0
LINE
8
BLACK
6
CONTINUOUS
10
4.3524454330708657
20
-6.8006982283464561
11
4.3486036614173225
21
-6.7914233464566927
0
LINE
8
BLACK
6
CONTINUOUS
10
4.3486036614173225
20
-6.7914233464566927
11
4.3462600787401575
21
-6.7816616535433072
0
LINE
8
BLACK
6
CONTINUOUS
10
4.3462600787401575
20
-6.7816616535433072
11
4.3454724409448815
21
-6.7716535433070861
0
LINE
8
BLACK
6
CONTINUOUS
10
4.3454724409448815
20
-6.7716535433070861
11
4.3462600787401575
21
-6.761645433070866
0
LINE
8
BLACK
6
CONTINUOUS
10
4.3462600787401575
20
-6.761645433070866
11
4.3486036614173225
21
-6.7518837401574805
0
LINE
8
BLACK
6
CONTINUOUS
10
4.3486036614173225
20
-6.7518837401574805
11
4.3524454330708657
21
-6.7426088582677162
0
LINE
8
BLACK
6
CONTINUOUS
10
4.3524454330708657
20
-6.7426088582677162
11
4.3576908267716536
21
-6.7340491732283461
0
LINE
8
BLACK
6
CONTINUOUS
10
4.3576908267716536
20
-6.7340491732283461
11
4.3642106692913387
21
-6.7264153937007869
0
LINE
8
BLACK
6
CONTINUOUS
10
4.3642106692913387
20
-6.7264153937007869
11
4.3718444488188979
21
-6.7198955511811018
0
LINE
8
BLACK
6
CONTINUOUS
10
4.3718444488188979
20
-6.7198955511811018
11
4.380404133858268
21
-6.7146501574803148
0
LINE
8
BLACK
6
CONTINUOUS
10
4.380404133858268
20
-6.7146501574803148
11
4.3896790157480314
21
-6.7108083858267715
0
LINE
8
BLACK
6
CONTINUOUS
10
4.3896790157480314
20
-6.7108083858267715
11
4.3994407086614169
21
-6.7084648031496066
0
LINE
8
BLACK
6
CONTINUOUS
10
4.3994407086614169
20
-6.7084648031496066
11
4.409448818897638
21
-6.7076771653543306
0
LINE
8
BLACK
6
CONTINUOUS
10
4.409448818897638
20
-6.7076771653543306
11
4.4194569291338581
21
-6.7084648031496066
0
LINE
8
BLACK
6
CONTINUOUS
10
4.3480150000000002
20
-6.7813837007874014
11
4.3502934645669287
21
-6.7908742913385822
0
LINE
8
BLACK
6
CONTINUOUS
10
4.3502934645669287
20
-6.7908742913385822
11
4.3540285826771656
21
-6.7998915748031497
0
LINE
8
BLACK
6
CONTINUOUS
10
4.3540285826771656
20
-6.7998915748031497
11
4.3591282677165353
21
-6.8082135433070867
0
LINE
8
BLACK
6
CONTINUOUS
10
4.3591282677165353
20
-6.8082135433070867
11
4.3654670472440946
21
-6.8156353149606295
0
LINE
8
BLACK
6
CONTINUOUS
10
4.3654670472440946
20
-6.8156353149606295
11
4.3728888188976374
21
-6.8219740944881888
0
LINE
8
BLACK
6
CONTINUOUS
10
4.3728888188976374
20
-6.8219740944881888
11
4.3812107874015744
21
-6.8270737795275593
0
LINE
8
BLACK
6
CONTINUOUS
10
4.3812107874015744
20
-6.8270737795275593
11
4.3902280708661419
21
-6.8308088976377954
0
LINE
8
BLACK
6
CONTINUOUS
10
4.3902280708661419
20
-6.8308088976377954
11
4.3997186614173227
21
-6.8330873622047239
0
LINE
8
BLACK
6
CONTINUOUS
10
4.3997186614173227
20
-6.8330873622047239
11
4.409448818897638
21
-6.8338531496062993
0
LINE
8
BLACK
6
CONTINUOUS
10
4.409448818897638
20
-6.8338531496062993
11
4.4191789763779523
21
-6.8330873622047239
0
LINE
8
BLACK
6
CONTINUOUS
10
4.4191789763779523
20
-6.8330873622047239
11
4.428669566929134
21
-6.8308088976377954
0
LINE
8
BLACK
6
CONTINUOUS
10
4.428669566929134
20
-6.8308088976377954
11
4.4376868503937006
21
-6.8270737795275593
0
LINE
8
BLACK
6
CONTINUOUS
10
4.4376868503937006
20
-6.8270737795275593
11
4.4460088188976377
21
-6.8219740944881888
0
LINE
8
BLACK
6
CONTINUOUS
10
4.4460088188976377
20
-6.8219740944881888
11
4.4534305905511813
21
-6.8156353149606295
0
LINE
8
BLACK
6
CONTINUOUS
10
4.4534305905511813
20
-6.8156353149606295
11
4.4597693700787397
21
-6.8082135433070867
0
LINE
8
BLACK
6
CONTINUOUS
10
4.4597693700787397
20
-6.8082135433070867
11
4.4648690551181103
21
-6.7998915748031497
0
LINE
8
BLACK
6
CONTINUOUS
10
4.4648690551181103
20
-6.7998915748031497
11
4.4686041732283464
21
-6.7908742913385822
0
LINE
8
BLACK
6
CONTINUOUS
10
4.4686041732283464
20
-6.7908742913385822
11
4.4708826377952757
21
-6.7813837007874014
0
LINE
8
BLACK
6
CONTINUOUS
10
4.4708826377952757
20
-6.7813837007874014
11
4.4716484251968502
21
-6.7716535433070861
0
LINE
8
BLACK
6
CONTINUOUS
10
4.4716484251968502
20
-6.7716535433070861
11
4.4708826377952757
21
-6.7619233858267718
0
LINE
8
BLACK
6
CONTINUOUS
10
4.4708826377952757
20
-6.7619233858267718
11
4.4686041732283464
21
-6.75243279527559
0
LINE
8
BLACK
6
CONTINUOUS
10
4.4686041732283464
20
-6.75243279527559
11
4.4648690551181103
21
-6.7434155118110235
0
LINE
8
BLACK
6
CONTINUOUS
10
4.4648690551181103
20
-6.7434155118110235
11
4.4597693700787397
21
-6.7350935433070864
0
LINE
8
BLACK
6
CONTINUOUS
10
4.4597693700787397
20
-6.7350935433070864
11
4.4534305905511813
21
-6.7276717716535428
0
LINE
8
BLACK
6
CONTINUOUS
10
4.4534305905511813
20
-6.7276717716535428
11
4.4460088188976377
21
-6.7213329921259843
0
LINE
8
BLACK
6
CONTINUOUS
10
4.4460088188976377
20
-6.7213329921259843
11
4.4376868503937006
21
-6.7162333070866138
0
LINE
8
BLACK
6
CONTINUOUS
10
4.4376868503937006
20
-6.7162333070866138
11
4.428669566929134
21
-6.7124981889763777
0
LINE
8
BLACK
6
CONTINUOUS
10
4.428669566929134
20
-6.7124981889763777
11
4.4191789763779523
21
-6.7102197244094484
0
LINE
8
BLACK
6
CONTINUOUS
10
4.4191789763779523
20
-6.7102197244094484
11
4.409448818897638
21
-6.7094539370078738
0
LINE
8
BLACK
6
CONTINUOUS
10
4.409448818897638
20
-6.7094539370078738
11
4.3997186614173227
21
-6.7102197244094484
0
LINE
8
BLACK
6
CONTINUOUS
10
4.3997186614173227
20
-6.7102197244094484
11
4.3902280708661419
21
-6.7124981889763777
0
LINE
8
BLACK
6
CONTINUOUS
10
4.3902280708661419
20
-6.7124981889763777
11
4.3812107874015744
21
-6.7162333070866138
0
LINE
8
BLACK
6
CONTINUOUS
10
4.3812107874015744
20
-6.7162333070866138
11
4.3728888188976374
21
-6.7213329921259843
0
LINE
8
BLACK
6
CONTINUOUS
10
4.3728888188976374
20
-6.7213329921259843
11
4.3654670472440946
21
-6.7276717716535428
0
LINE
8
BLACK
6
CONTINUOUS
10
4.3654670472440946
20
-6.7276717716535428
11
4.3591282677165353
21
-6.7350935433070864
0
LINE
8
BLACK
6
CONTINUOUS
10
4.3591282677165353
20
-6.7350935433070864
11
4.3540285826771656
21
-6.7434155118110235
0
LINE
8
BLACK
6
CONTINUOUS
10
4.3540285826771656
20
-6.7434155118110235
11
4.3502934645669287
21
-6.75243279527559
0
LINE
8
BLACK
6
CONTINUOUS
10
4.3502934645669287
20
-6.75243279527559
11
4.3480150000000002
21
-6.7619233858267718
0
LINE
8
BLACK
6
CONTINUOUS
10
4.3480150000000002
20
-6.7619233858267718
11
4.3472492125984248
21
-6.7716535433070861
0
LINE
8
BLACK
6
CONTINUOUS
10
4.3472492125984248
20
-6.7716535433070861
11
4.3480150000000002
21
-6.7813837007874014
0
LINE
8
BLACK
6
CONTINUOUS
10
4.2326601181102363
20
-2.7156261023622048
11
4.2331927952755901
21
-2.716158779527559
0
LINE
8
BLACK
6
CONTINUOUS
10
4.2331927952755901
20
-2.716158779527559
11
4.2332677165354333
21
-2.7165354330708662
0
LINE
8
BLACK
6
CONTINUOUS
10
4.2332677165354333
20
-2.7165354330708662
11
4.2332677165354333
21
-6.6535433070866139
0
LINE
8
BLACK
6
CONTINUOUS
10
4.2332677165354333
20
-6.6535433070866139
11
4.2331927952755901
21
-6.6539199606299215
0
LINE
8
BLACK
6
CONTINUOUS
10
4.2331927952755901
20
-6.6539199606299215
11
4.2326601181102363
21
-6.6544526377952753
0
LINE
8
BLACK
6
CONTINUOUS
10
4.2326601181102363
20
-6.6544526377952753
11
4.2322834645669287
21
-6.6545275590551176
0
LINE
8
BLACK
6
CONTINUOUS
10
4.2322834645669287
20
-6.6545275590551176
11
2.4606299212598426
21
-6.6545275590551176
0
LINE
8
BLACK
6
CONTINUOUS
10
2.4606299212598426
20
-6.6545275590551176
11
2.4602532677165354
21
-6.6544526377952753
0
LINE
8
BLACK
6
CONTINUOUS
10
2.4602532677165354
20
-6.6544526377952753
11
2.4597205905511812
21
-6.6539199606299215
0
LINE
8
BLACK
6
CONTINUOUS
10
2.4597205905511812
20
-6.6539199606299215
11
2.4596456692913384
21
-6.6535433070866139
0
LINE
8
BLACK
6
CONTINUOUS
10
2.4596456692913384
20
-6.6535433070866139
11
2.4596456692913384
21
-2.7165354330708662
0
LINE
8
BLACK
6
CONTINUOUS
10
2.4596456692913384
20
-2.7165354330708662
11
2.4597205905511812
21
-2.716158779527559
0
LINE
8
BLACK
6
CONTINUOUS
10
2.4597205905511812
20
-2.716158779527559
11
2.4602532677165354
21
-2.7156261023622048
0
LINE
8
BLACK
6
CONTINUOUS
10
2.4602532677165354
20
-2.7156261023622048
11
2.4606299212598426
21
-2.715551181102362
0
LINE
8
BLACK
6
CONTINUOUS
10
2.4606299212598426
20
-2.715551181102362
11
4.2322834645669287
21
-2.715551181102362
0
LINE
8
BLACK
6
CONTINUOUS
10
4.2322834645669287
20
-2.715551181102362
11
4.2326601181102363
21
-2.7156261023622048
0
LINE
8
BLACK
6
CONTINUOUS
10
2.4616141732283463
20
-2.7175196850393699
11
2.4616141732283463
21
-6.6525590551181102
0
LINE
8
BLACK
6
CONTINUOUS
10
2.4616141732283463
20
-6.6525590551181102
11
4.231299212598425
21
-6.6525590551181102
0
LINE
8
BLACK
6
CONTINUOUS
10
4.231299212598425
20
-6.6525590551181102
11
4.231299212598425
21
-2.7175196850393699
0
LINE
8
BLACK
6
CONTINUOUS
10
4.231299212598425
20
-2.7175196850393699
11
2.4616141732283463
21
-2.7175196850393699
0
LINE
8
BLACK
6
CONTINUOUS
10
2.2934726771653544
20
-2.4171262204724409
11
2.3032343700787403
21
-2.4194698031496062
0
LINE
8
BLACK
6
CONTINUOUS
10
2.3032343700787403
20
-2.4194698031496062
11
2.3125092519685038
21
-2.4233115748031495
0
LINE
8
BLACK
6
CONTINUOUS
10
2.3125092519685038
20
-2.4233115748031495
11
2.3210689370078739
21
-2.428556968503937
0
LINE
8
BLACK
6
CONTINUOUS
10
2.3210689370078739
20
-2.428556968503937
11
2.328702716535433
21
-2.4350768110236221
0
LINE
8
BLACK
6
CONTINUOUS
10
2.328702716535433
20
-2.4350768110236221
11
2.3352225590551181
21
-2.4427105905511812
0
LINE
8
BLACK
6
CONTINUOUS
10
2.3352225590551181
20
-2.4427105905511812
11
2.3404679527559056
21
-2.4512702755905513
0
LINE
8
BLACK
6
CONTINUOUS
10
2.3404679527559056
20
-2.4512702755905513
11
2.3443097244094488
21
-2.4605451574803148
0
LINE
8
BLACK
6
CONTINUOUS
10
2.3443097244094488
20
-2.4605451574803148
11
2.3466533070866142
21
-2.4703068503937007
0
LINE
8
BLACK
6
CONTINUOUS
10
2.3466533070866142
20
-2.4703068503937007
11
2.3474409448818898
21
-2.4803149606299213
0
LINE
8
BLACK
6
CONTINUOUS
10
2.3474409448818898
20
-2.4803149606299213
11
2.3466533070866142
21
-2.4903230708661415
0
LINE
8
BLACK
6
CONTINUOUS
10
2.3466533070866142
20
-2.4903230708661415
11
2.3443097244094488
21
-2.5000847637795274
0
LINE
8
BLACK
6
CONTINUOUS
10
2.3443097244094488
20
-2.5000847637795274
11
2.3404679527559056
21
-2.5093596456692913
0
LINE
8
BLACK
6
CONTINUOUS
10
2.3404679527559056
20
-2.5093596456692913
11
2.3352225590551181
21
-2.5179193307086614
0
LINE
8
BLACK
6
CONTINUOUS
10
2.3352225590551181
20
-2.5179193307086614
11
2.328702716535433
21
-2.5255531102362205
0
LINE
8
BLACK
6
CONTINUOUS
10
2.328702716535433
20
-2.5255531102362205
11
2.3210689370078739
21
-2.5320729527559056
0
LINE
8
BLACK
6
CONTINUOUS
10
2.3210689370078739
20
-2.5320729527559056
11
2.3125092519685038
21
-2.5373183464566931
0
LINE
8
BLACK
6
CONTINUOUS
10
2.3125092519685038
20
-2.5373183464566931
11
2.3032343700787403
21
-2.5411601181102363
0
LINE
8
BLACK
6
CONTINUOUS
10
2.3032343700787403
20
-2.5411601181102363
11
2.2934726771653544
21
-2.5435037007874017
0
LINE
8
BLACK
6
CONTINUOUS
10
2.2934726771653544
20
-2.5435037007874017
11
2.2834645669291338
21
-2.5442913385826773
0
LINE
8
BLACK
6
CONTINUOUS
10
2.2834645669291338
20
-2.5442913385826773
11
2.2734564566929132
21
-2.5435037007874017
0
LINE
8
BLACK
6
CONTINUOUS
10
2.2734564566929132
20
-2.5435037007874017
11
2.2636947637795277
21
-2.5411601181102363
0
LINE
8
BLACK
6
CONTINUOUS
10
2.2636947637795277
20
-2.5411601181102363
11
2.2544198818897638
21
-2.5373183464566931
0
LINE
8
BLACK
6
CONTINUOUS
10
2.2544198818897638
20
-2.5373183464566931
11
2.2458601968503937
21
-2.5320729527559056
0
LINE
8
BLACK
6
CONTINUOUS
10
2.2458601968503937
20
-2.5320729527559056
11
2.2382264173228346
21
-2.5255531102362205
0
LINE
8
BLACK
6
CONTINUOUS
10
2.2382264173228346
20
-2.5255531102362205
11
2.2317065748031495
21
-2.5179193307086614
0
LINE
8
BLACK
6
CONTINUOUS
10
2.2317065748031495
20
-2.5179193307086614
11
2.226461181102362
21
-2.5093596456692913
0
LINE
8
BLACK
6
CONTINUOUS
10
2.226461181102362
20
-2.5093596456692913
11
2.2226194094488188
21
-2.5000847637795274
0
LINE
8
BLACK
6
CONTINUOUS
10
2.2226194094488188
20
-2.5000847637795274
11
2.2202758267716534
21
-2.4903230708661415
0
LINE
8
BLACK
6
CONTINUOUS
10
2.2202758267716534
20
-2.4903230708661415
11
2.2194881889763778
21
-2.4803149606299213
0
LINE
8
BLACK
6
CONTINUOUS
10
2.2194881889763778
20
-2.4803149606299213
11
2.2202758267716534
21
-2.4703068503937007
0
LINE
8
BLACK
6
CONTINUOUS
10
2.2202758267716534
20
-2.4703068503937007
11
2.2226194094488188
21
-2.4605451574803148
0
LINE
8
BLACK
6
CONTINUOUS
10
2.2226194094488188
20
-2.4605451574803148
11
2.226461181102362
21
-2.4512702755905513
0
LINE
8
BLACK
6
CONTINUOUS
10
2.226461181102362
20
-2.4512702755905513
11
2.2317065748031495
21
-2.4427105905511812
0
LINE
8
BLACK
6
CONTINUOUS
10
2.2317065748031495
20
-2.4427105905511812
11
2.2382264173228346
21
-2.4350768110236221
0
LINE
8
BLACK
6
CONTINUOUS
10
2.2382264173228346
20
-2.4350768110236221
11
2.2458601968503937
21
-2.428556968503937
0
LINE
8
BLACK
6
CONTINUOUS
10
2.2458601968503937
20
-2.428556968503937
11
2.2544198818897638
21
-2.4233115748031495
0
LINE
8
BLACK
6
CONTINUOUS
10
2.2544198818897638
20
-2.4233115748031495
11
2.2636947637795277
21
-2.4194698031496062
0
LINE
8
BLACK
6
CONTINUOUS
10
2.2636947637795277
20
-2.4194698031496062
11
2.2734564566929132
21
-2.4171262204724409
0
LINE
8
BLACK
6
CONTINUOUS
10
2.2734564566929132
20
-2.4171262204724409
11
2.2834645669291338
21
-2.4163385826771653
0
LINE
8
BLACK
6
CONTINUOUS
10
2.2834645669291338
20
-2.4163385826771653
11
2.2934726771653544
21
-2.4171262204724409
0
LINE
8
BLACK
6
CONTINUOUS
10
2.222030748031496
20
-2.4900451181102361
11
2.224309212598425
21
-2.4995357086614174
0
LINE
8
BLACK
6
CONTINUOUS
10
2.224309212598425
20
-2.4995357086614174
11
2.2280443307086615
21
-2.5085529921259844
0
LINE
8
BLACK
6
CONTINUOUS
10
2.2280443307086615
20
-2.5085529921259844
11
2.2331440157480316
21
-2.516874960629921
0
LINE
8
BLACK
6
CONTINUOUS
10
2.2331440157480316
20
-2.516874960629921
11
2.2394827952755905
21
-2.5242967322834646
0
LINE
8
BLACK
6
CONTINUOUS
10
2.2394827952755905
20
-2.5242967322834646
11
2.2469045669291337
21
-2.5306355118110235
0
LINE
8
BLACK
6
CONTINUOUS
10
2.2469045669291337
20
-2.5306355118110235
11
2.2552265354330707
21
-2.5357351968503936
0
LINE
8
BLACK
6
CONTINUOUS
10
2.2552265354330707
20
-2.5357351968503936
11
2.2642438188976377
21
-2.5394703149606297
0
LINE
8
BLACK
6
CONTINUOUS
10
2.2642438188976377
20
-2.5394703149606297
11
2.273734409448819
21
-2.5417487795275591
0
LINE
8
BLACK
6
CONTINUOUS
10
2.273734409448819
20
-2.5417487795275591
11
2.2834645669291338
21
-2.5425145669291336
0
LINE
8
BLACK
6
CONTINUOUS
10
2.2834645669291338
20
-2.5425145669291336
11
2.2931947244094486
21
-2.5417487795275591
0
LINE
8
BLACK
6
CONTINUOUS
10
2.2931947244094486
20
-2.5417487795275591
11
2.3026853149606299
21
-2.5394703149606297
0
LINE
8
BLACK
6
CONTINUOUS
10
2.3026853149606299
20
-2.5394703149606297
11
2.3117025984251969
21
-2.5357351968503936
0
LINE
8
BLACK
6
CONTINUOUS
10
2.3117025984251969
20
-2.5357351968503936
11
2.3200245669291339
21
-2.5306355118110235
0
LINE
8
BLACK
6
CONTINUOUS
10
2.3200245669291339
20
-2.5306355118110235
11
2.3274463385826771
21
-2.5242967322834646
0
LINE
8
BLACK
6
CONTINUOUS
10
2.3274463385826771
20
-2.5242967322834646
11
2.333785118110236
21
-2.516874960629921
0
LINE
8
BLACK
6
CONTINUOUS
10
2.333785118110236
20
-2.516874960629921
11
2.3388848031496061
21
-2.5085529921259844
0
LINE
8
BLACK
6
CONTINUOUS
10
2.3388848031496061
20
-2.5085529921259844
11
2.3426199212598426
21
-2.4995357086614174
0
LINE
8
BLACK
6
CONTINUOUS
10
2.3426199212598426
20
-2.4995357086614174
11
2.3448983858267716
21
-2.4900451181102361
0
LINE
8
BLACK
6
CONTINUOUS
10
2.3448983858267716
20
-2.4900451181102361
11
2.3456641732283465
21
-2.4803149606299213
0
LINE
8
BLACK
6
CONTINUOUS
10
2.3456641732283465
20
-2.4803149606299213
11
2.3448983858267716
21
-2.470584803149606
0
LINE
8
BLACK
6
CONTINUOUS
10
2.3448983858267716
20
-2.470584803149606
11
2.3426199212598426
21
-2.4610942125984252
0
LINE
8
BLACK
6
CONTINUOUS
10
2.3426199212598426
20
-2.4610942125984252
11
2.3388848031496061
21
-2.4520769291338582
0
LINE
8
BLACK
6
CONTINUOUS
10
2.3388848031496061
20
-2.4520769291338582
11
2.333785118110236
21
-2.4437549606299211
0
LINE
8
BLACK
6
CONTINUOUS
10
2.333785118110236
20
-2.4437549606299211
11
2.3274463385826771
21
-2.436333188976378
0
LINE
8
BLACK
6
CONTINUOUS
10
2.3274463385826771
20
-2.436333188976378
11
2.3200245669291339
21
-2.4299944094488191
0
LINE
8
BLACK
6
CONTINUOUS
10
2.3200245669291339
20
-2.4299944094488191
11
2.3117025984251969
21
-2.424894724409449
0
LINE
8
BLACK
6
CONTINUOUS
10
2.3117025984251969
20
-2.424894724409449
11
2.3026853149606299
21
-2.4211596062992125
0
LINE
8
BLACK
6
CONTINUOUS
10
2.3026853149606299
20
-2.4211596062992125
11
2.2931947244094486
21
-2.4188811417322835
0
LINE
8
BLACK
6
CONTINUOUS
10
2.2931947244094486
20
-2.4188811417322835
11
2.2834645669291338
21
-2.4181153543307086
0
LINE
8
BLACK
6
CONTINUOUS
10
2.2834645669291338
20
-2.4181153543307086
11
2.273734409448819
21
-2.4188811417322835
0
LINE
8
BLACK
6
CONTINUOUS
10
2.273734409448819
20
-2.4188811417322835
11
2.2642438188976377
21
-2.4211596062992125
0
LINE
8
BLACK
6
CONTINUOUS
10
2.2642438188976377
20
-2.4211596062992125
11
2.2552265354330707
21
-2.424894724409449
0
LINE
8
BLACK
6
CONTINUOUS
10
2.2552265354330707
20
-2.424894724409449
11
2.2469045669291337
21
-2.4299944094488191
0
LINE
8
BLACK
6
CONTINUOUS
10
2.2469045669291337
20
-2.4299944094488191
11
2.2394827952755905
21
-2.436333188976378
0
LINE
8
BLACK
6
CONTINUOUS
10
2.2394827952755905
20
-2.436333188976378
11
2.2331440157480316
21
-2.4437549606299211
0
LINE
8
BLACK
6
CONTINUOUS
10
2.2331440157480316
20
-2.4437549606299211
11
2.2280443307086615
21
-2.4520769291338582
0
LINE
8
BLACK
6
CONTINUOUS
10
2.2280443307086615
20
-2.4520769291338582
11
2.224309212598425
21
-2.4610942125984252
0
LINE
8
BLACK
6
CONTINUOUS
10
2.224309212598425
20
-2.4610942125984252
11
2.222030748031496
21
-2.470584803149606
0
LINE
8
BLACK
6
CONTINUOUS
10
2.222030748031496
20
-2.470584803149606
11
2.2212649606299211
21
-2.4803149606299213
0
LINE
8
BLACK
6
CONTINUOUS
10
2.2212649606299211
20
-2.4803149606299213
11
2.222030748031496
21
-2.4900451181102361
0
LINE
8
BLACK
6
CONTINUOUS
10
4.4194569291338581
20
-2.4171262204724409
11
4.4292186220472436
21
-2.4194698031496062
0
LINE
8
BLACK
6
CONTINUOUS
10
4.4292186220472436
20
-2.4194698031496062
11
4.4384935039370079
21
-2.4233115748031495
0
LINE
8
BLACK
6
CONTINUOUS
10
4.4384935039370079
20
-2.4233115748031495
11
4.447053188976378
21
-2.428556968503937
0
LINE
8
BLACK
6
CONTINUOUS
10
4.447053188976378
20
-2.428556968503937
11
4.4546869685039372
21
-2.4350768110236221
0
LINE
8
BLACK
6
CONTINUOUS
10
4.4546869685039372
20
-2.4350768110236221
11
4.4612068110236223
21
-2.4427105905511812
0
LINE
8
BLACK
6
CONTINUOUS
10
4.4612068110236223
20
-2.4427105905511812
11
4.4664522047244093
21
-2.4512702755905513
0
LINE
8
BLACK
6
CONTINUOUS
10
4.4664522047244093
20
-2.4512702755905513
11
4.4702939763779526
21
-2.4605451574803148
0
LINE
8
BLACK
6
CONTINUOUS
10
4.4702939763779526
20
-2.4605451574803148
11
4.4726375590551184
21
-2.4703068503937007
0
LINE
8
BLACK
6
CONTINUOUS
10
4.4726375590551184
20
-2.4703068503937007
11
4.4734251968503935
21
-2.4803149606299213
0
LINE
8
BLACK
6
CONTINUOUS
10
4.4734251968503935
20
-2.4803149606299213
11
4.4726375590551184
21
-2.4903230708661415
0
LINE
8
BLACK
6
CONTINUOUS
10
4.4726375590551184
20
-2.4903230708661415
11
4.4702939763779526
21
-2.5000847637795274
0
LINE
8
BLACK
6
CONTINUOUS
10
4.4702939763779526
20
-2.5000847637795274
11
4.4664522047244093
21
-2.5093596456692913
0
LINE
8
BLACK
6
CONTINUOUS
10
4.4664522047244093
20
-2.5093596456692913
11
4.4612068110236223
21
-2.5179193307086614
0
LINE
8
BLACK
6
CONTINUOUS
10
4.4612068110236223
20
-2.5179193307086614
11
4.4546869685039372
21
-2.5255531102362205
0
LINE
8
BLACK
6
CONTINUOUS
10
4.4546869685039372
20
-2.5255531102362205
11
4.447053188976378
21
-2.5320729527559056
0
LINE
8
BLACK
6
CONTINUOUS
10
4.447053188976378
20
-2.5320729527559056
11
4.4384935039370079
21
-2.5373183464566931
0
LINE
8
BLACK
6
CONTINUOUS
10
4.4384935039370079
20
-2.5373183464566931
11
4.4292186220472436
21
-2.5411601181102363
0
LINE
8
BLACK
6
CONTINUOUS
10
4.4292186220472436
20
-2.5411601181102363
11
4.4194569291338581
21
-2.5435037007874017
0
LINE
8
BLACK
6
CONTINUOUS
10
4.4194569291338581
20
-2.5435037007874017
11
4.409448818897638
21
-2.5442913385826773
0
LINE
8
BLACK
6
CONTINUOUS
10
4.409448818897638
20
-2.5442913385826773
11
4.3994407086614169
21
-2.5435037007874017
0
LINE
8
BLACK
6
CONTINUOUS
10
4.3994407086614169
20
-2.5435037007874017
11
4.3896790157480314
21
-2.5411601181102363
0
LINE
8
BLACK
6
CONTINUOUS
10
4.3896790157480314
20
-2.5411601181102363
11
4.380404133858268
21
-2.5373183464566931
0
LINE
8
BLACK
6
CONTINUOUS
10
4.380404133858268
20
-2.5373183464566931
11
4.3718444488188979
21
-2.5320729527559056
0
LINE
8
BLACK
6
CONTINUOUS
10
4.3718444488188979
20
-2.5320729527559056
11
4.3642106692913387
21
-2.5255531102362205
0
LINE
8
BLACK
6
CONTINUOUS
10
4.3642106692913387
20
-2.5255531102362205
11
4.3576908267716536
21
-2.5179193307086614
0
LINE
8
BLACK
6
CONTINUOUS
10
4.3576908267716536
20
-2.5179193307086614
11
4.3524454330708657
21
-2.5093596456692913
0
LINE
8
BLACK
6
CONTINUOUS
10
4.3524454330708657
20
-2.5093596456692913
11
4.3486036614173225
21
-2.5000847637795274
0
LINE
8
BLACK
6
CONTINUOUS
10
4.3486036614173225
20
-2.5000847637795274
11
4.3462600787401575
21
-2.4903230708661415
0
LINE
8
BLACK
6
CONTINUOUS
10
4.3462600787401575
20
-2.4903230708661415
11
4.3454724409448815
21
-2.4803149606299213
0
LINE
8
BLACK
6
CONTINUOUS
10
4.3454724409448815
20
-2.4803149606299213
11
4.3462600787401575
21
-2.4703068503937007
0
LINE
8
BLACK
6
CONTINUOUS
10
4.3462600787401575
20
-2.4703068503937007
11
4.3486036614173225
21
-2.4605451574803148
0
LINE
8
BLACK
6
CONTINUOUS
10
4.3486036614173225
20
-2.4605451574803148
11
4.3524454330708657
21
-2.4512702755905513
0
LINE
8
BLACK
6
CONTINUOUS
10
4.3524454330708657
20
-2.4512702755905513
11
4.3576908267716536
21
-2.4427105905511812
0
LINE
8
BLACK
6
CONTINUOUS
10
4.3576908267716536
20
-2.4427105905511812
11
4.3642106692913387
21
-2.4350768110236221
0
LINE
8
BLACK
6
CONTINUOUS
10
4.3642106692913387
20
-2.4350768110236221
11
4.3718444488188979
21
-2.428556968503937
0
LINE
8
BLACK
6
CONTINUOUS
10
4.3718444488188979
20
-2.428556968503937
11
4.380404133858268
21
-2.4233115748031495
0
LINE
8
BLACK
6
CONTINUOUS
10
4.380404133858268
20
-2.4233115748031495
11
4.3896790157480314
21
-2.4194698031496062
0
LINE
8
BLACK
6
CONTINUOUS
10
4.3896790157480314
20
-2.4194698031496062
11
4.3994407086614169
21
-2.4171262204724409
0
LINE
8
BLACK
6
CONTINUOUS
10
4.3994407086614169
20
-2.4171262204724409
11
4.409448818897638
21
-2.4163385826771653
0
LINE
8
BLACK
6
CONTINUOUS
10
4.409448818897638
20
-2.4163385826771653
11
4.4194569291338581
21
-2.4171262204724409
0
LINE
8
BLACK
6
CONTINUOUS
10
4.3480150000000002
20
-2.4900451181102361
11
4.3502934645669287
21
-2.4995357086614174
0
LINE
8
BLACK
6
CONTINUOUS
10
4.3502934645669287
20
-2.4995357086614174
11
4.3540285826771656
21
-2.5085529921259844
0
LINE
8
BLACK
6
CONTINUOUS
10
4.3540285826771656
20
-2.5085529921259844
11
4.3591282677165353
21
-2.516874960629921
0
LINE
8
BLACK
6
CONTINUOUS
10
4.3591282677165353
20
-2.516874960629921
11
4.3654670472440946
21
-2.5242967322834646
0
LINE
8
BLACK
6
CONTINUOUS
10
4.3654670472440946
20
-2.5242967322834646
11
4.3728888188976374
21
-2.5306355118110235
0
LINE
8
BLACK
6
CONTINUOUS
10
4.3728888188976374
20
-2.5306355118110235
11
4.3812107874015744
21
-2.5357351968503936
0
LINE
8
BLACK
6
CONTINUOUS
10
4.3812107874015744
20
-2.5357351968503936
11
4.3902280708661419
21
-2.5394703149606297
0
LINE
8
BLACK
6
CONTINUOUS
10
4.3902280708661419
20
-2.5394703149606297
11
4.3997186614173227
21
-2.5417487795275591
0
LINE
8
BLACK
6
CONTINUOUS
10
4.3997186614173227
20
-2.5417487795275591
11
4.409448818897638
21
-2.5425145669291336
0
LINE
8
BLACK
6
CONTINUOUS
10
4.409448818897638
20
-2.5425145669291336
11
4.4191789763779523
21
-2.5417487795275591
0
LINE
8
BLACK
6
CONTINUOUS
10
4.4191789763779523
20
-2.5417487795275591
11
4.428669566929134
21
-2.5394703149606297
0
LINE
8
BLACK
6
CONTINUOUS
10
4.428669566929134
20
-2.5394703149606297
11
4.4376868503937006
21
-2.5357351968503936
0
LINE
8
BLACK
6
CONTINUOUS
10
4.4376868503937006
20
-2.5357351968503936
11
4.4460088188976377
21
-2.5306355118110235
0
LINE
8
BLACK
6
CONTINUOUS
10
4.4460088188976377
20
-2.5306355118110235
11
4.4534305905511813
21
-2.5242967322834646
0
LINE
8
BLACK
6
CONTINUOUS
10
4.4534305905511813
20
-2.5242967322834646
11
4.4597693700787397
21
-2.516874960629921
0
LINE
8
BLACK
6
CONTINUOUS
10
4.4597693700787397
20
-2.516874960629921
11
4.4648690551181103
21
-2.5085529921259844
0
LINE
8
BLACK
6
CONTINUOUS
10
4.4648690551181103
20
-2.5085529921259844
11
4.4686041732283464
21
-2.4995357086614174
0
LINE
8
BLACK
6
CONTINUOUS
10
4.4686041732283464
20
-2.4995357086614174
11
4.4708826377952757
21
-2.4900451181102361
0
LINE
8
BLACK
6
CONTINUOUS
10
4.4708826377952757
20
-2.4900451181102361
11
4.4716484251968502
21
-2.4803149606299213
0
LINE
8
BLACK
6
CONTINUOUS
10
4.4716484251968502
20
-2.4803149606299213
11
4.4708826377952757
21
-2.470584803149606
0
LINE
8
BLACK
6
CONTINUOUS
10
4.4708826377952757
20
-2.470584803149606
11
4.4686041732283464
21
-2.4610942125984252
0
LINE
8
BLACK
6
CONTINUOUS
10
4.4686041732283464
20
-2.4610942125984252
11
4.4648690551181103
21
-2.4520769291338582
0
LINE
8
BLACK
6
CONTINUOUS
10
4.4648690551181103
20
-2.4520769291338582
11
4.4597693700787397
21
-2.4437549606299211
0
LINE
8
BLACK
6
CONTINUOUS
10
4.4597693700787397
20
-2.4437549606299211
11
4.4534305905511813
21
-2.436333188976378
0
LINE
8
BLACK
6
CONTINUOUS
10
4.4534305905511813
20
-2.436333188976378
11
4.4460088188976377
21
-2.4299944094488191
0
LINE
8
BLACK
6
CONTINUOUS
10
4.4460088188976377
20
-2.4299944094488191
11
4.4376868503937006
21
-2.424894724409449
0
LINE
8
BLACK
6
CONTINUOUS
10
4.4376868503937006
20
-2.424894724409449
11
4.428669566929134
21
-2.4211596062992125
0
LINE
8
BLACK
6
CONTINUOUS
10
4.428669566929134
20
-2.4211596062992125
11
4.4191789763779523
21
-2.4188811417322835
0
LINE
8
BLACK
6
CONTINUOUS
10
4.4191789763779523
20
-2.4188811417322835
11
4.409448818897638
21
-2.4181153543307086
0
LINE
8
BLACK
6
CONTINUOUS
10
4.409448818897638
20
-2.4181153543307086
11
4.3997186614173227
21
-2.4188811417322835
0
LINE
8
BLACK
6
CONTINUOUS
10
4.3997186614173227
20
-2.4188811417322835
11
4.3902280708661419
21
-2.4211596062992125
0
LINE
8
BLACK
6
CONTINUOUS
10
4.3902280708661419
20
-2.4211596062992125
11
4.3812107874015744
21
-2.424894724409449
0
LINE
8
BLACK
6
CONTINUOUS
10
4.3812107874015744
20
-2.424894724409449
11
4.3728888188976374
21
-2.4299944094488191
0
LINE
8
BLACK
6
CONTINUOUS
10
4.3728888188976374
20
-2.4299944094488191
11
4.3654670472440946
21
-2.436333188976378
0
LINE
8
BLACK
6
CONTINUOUS
10
4.3654670472440946
20
-2.436333188976378
11
4.3591282677165353
21
-2.4437549606299211
0
LINE
8
BLACK
6
CONTINUOUS
10
4.3591282677165353
20
-2.4437549606299211
11
4.3540285826771656
21
-2.4520769291338582
0
LINE
8
BLACK
6
CONTINUOUS
10
4.3540285826771656
20
-2.4520769291338582
11
4.3502934645669287
21
-2.4610942125984252
0
LINE
8
BLACK
6
CONTINUOUS
10
4.3502934645669287
20
-2.4610942125984252
11
4.3480150000000002
21
-2.470584803149606
0
LINE
8
BLACK
6
CONTINUOUS
10
4.3480150000000002
20
-2.470584803149606
11
4.3472492125984248
21
-2.4803149606299213
0
LINE
8
BLACK
6
CONTINUOUS
10
4.3472492125984248
20
-2.4803149606299213
11
4.3480150000000002
21
-2.4900451181102361
0
LINE
8
BLACK
6
CONTINUOUS
10
4.5279357086614169
20
-2.3612953937007872
11
4.5284683858267716
21
-2.3618280708661419
0
LINE
8
BLACK
6
CONTINUOUS
10
4.5284683858267716
20
-2.3618280708661419
11
4.5285433070866139
21
-2.3622047244094486
0
LINE
8
BLACK
6
CONTINUOUS
10
4.5285433070866139
20
-2.3622047244094486
11
4.5285433070866139
21
-6.7716535433070861
0
LINE
8
BLACK
6
CONTINUOUS
10
4.5285433070866139
20
-6.7716535433070861
11
4.5278909055118106
21
-6.7841023228346451
0
LINE
8
BLACK
6
CONTINUOUS
10
4.5278909055118106
20
-6.7841023228346451
11
4.5259407874015745
21
-6.7964146850393696
0
LINE
8
BLACK
6
CONTINUOUS
10
4.5259407874015745
20
-6.7964146850393696
11
4.5227144094488185
21
-6.8084557480314958
0
LINE
8
BLACK
6
CONTINUOUS
10
4.5227144094488185
20
-6.8084557480314958
11
4.5182470472440945
21
-6.8200936220472439
0
LINE
8
BLACK
6
CONTINUOUS
10
4.5182470472440945
20
-6.8200936220472439
11
4.5125876771653539
21
-6.831200787401575
0
LINE
8
BLACK
6
CONTINUOUS
10
4.5125876771653539
20
-6.831200787401575
11
4.5057982677165356
21
-6.8416555118110232
0
LINE
8
BLACK
6
CONTINUOUS
10
4.5057982677165356
20
-6.8416555118110232
11
4.497953267716535
21
-6.8513433070866139
0
LINE
8
BLACK
6
CONTINUOUS
10
4.497953267716535
20
-6.8513433070866139
11
4.4891385826771648
21
-6.8601579921259841
0
LINE
8
BLACK
6
CONTINUOUS
10
4.4891385826771648
20
-6.8601579921259841
11
4.479450787401575
21
-6.8680029921259838
0
LINE
8
BLACK
6
CONTINUOUS
10
4.479450787401575
20
-6.8680029921259838
11
4.4689960629921259
21
-6.874792401574803
0
LINE
8
BLACK
6
CONTINUOUS
10
4.4689960629921259
20
-6.874792401574803
11
4.4578888976377948
21
-6.8804517716535427
0
LINE
8
BLACK
6
CONTINUOUS
10
4.4578888976377948
20
-6.8804517716535427
11
4.4462510236220467
21
-6.8849191338582676
0
LINE
8
BLACK
6
CONTINUOUS
10
4.4462510236220467
20
-6.8849191338582676
11
4.4342099606299215
21
-6.8881455118110235
0
LINE
8
BLACK
6
CONTINUOUS
10
4.4342099606299215
20
-6.8881455118110235
11
4.4218975984251969
21
-6.8900956299212597
0
LINE
8
BLACK
6
CONTINUOUS
10
4.4218975984251969
20
-6.8900956299212597
11
4.409448818897638
21
-6.890748031496063
0
LINE
8
BLACK
6
CONTINUOUS
10
4.409448818897638
20
-6.890748031496063
11
2.2834645669291338
21
-6.890748031496063
0
LINE
8
BLACK
6
CONTINUOUS
10
2.2834645669291338
20
-6.890748031496063
11
2.2710157874015748
21
-6.8900956299212597
0
LINE
8
BLACK
6
CONTINUOUS
10
2.2710157874015748
20
-6.8900956299212597
11
2.2587034251968503
21
-6.8881455118110235
0
LINE
8
BLACK
6
CONTINUOUS
10
2.2587034251968503
20
-6.8881455118110235
11
2.2466623622047242
21
-6.8849191338582676
0
LINE
8
BLACK
6
CONTINUOUS
10
2.2466623622047242
20
-6.8849191338582676
11
2.2350244881889765
21
-6.8804517716535427
0
LINE
8
BLACK
6
CONTINUOUS
10
2.2350244881889765
20
-6.8804517716535427
11
2.2239173228346458
21
-6.874792401574803
0
LINE
8
BLACK
6
CONTINUOUS
10
2.2239173228346458
20
-6.874792401574803
11
2.2134625984251968
21
-6.8680029921259838
0
LINE
8
BLACK
6
CONTINUOUS
10
2.2134625984251968
20
-6.8680029921259838
11
2.2037748031496061
21
-6.8601579921259841
0
LINE
8
BLACK
6
CONTINUOUS
10
2.2037748031496061
20
-6.8601579921259841
11
2.1949601181102363
21
-6.8513433070866139
0
LINE
8
BLACK
6
CONTINUOUS
10
2.1949601181102363
20
-6.8513433070866139
11
2.1871151181102362
21
-6.8416555118110232
0
LINE
8
BLACK
6
CONTINUOUS
10
2.1871151181102362
20
-6.8416555118110232
11
2.1803257086614174
21
-6.831200787401575
0
LINE
8
BLACK
6
CONTINUOUS
10
2.1803257086614174
20
-6.831200787401575
11
2.1746663385826772
21
-6.8200936220472439
0
LINE
8
BLACK
6
CONTINUOUS
10
2.1746663385826772
20
-6.8200936220472439
11
2.1701989763779528
21
-6.8084557480314958
0
LINE
8
BLACK
6
CONTINUOUS
10
2.1701989763779528
20
-6.8084557480314958
11
2.1669725984251968
21
-6.7964146850393696
0
LINE
8
BLACK
6
CONTINUOUS
10
2.1669725984251968
20
-6.7964146850393696
11
2.1650224803149607
21
-6.7841023228346451
0
LINE
8
BLACK
6
CONTINUOUS
10
2.1650224803149607
20
-6.7841023228346451
11
2.1643700787401574
21
-6.7716535433070861
0
LINE
8
BLACK
6
CONTINUOUS
10
2.1643700787401574
20
-6.7716535433070861
11
2.1643700787401574
21
-2.3622047244094486
0
LINE
8
BLACK
6
CONTINUOUS
10
2.1643700787401574
20
-2.3622047244094486
11
2.1644449999999997
21
-2.3618280708661419
0
LINE
8
BLACK
6
CONTINUOUS
10
2.1644449999999997
20
-2.3618280708661419
11
2.1649776771653544
21
-2.3612953937007872
0
LINE
8
BLACK
6
CONTINUOUS
10
2.1649776771653544
20
-2.3612953937007872
11
2.1653543307086616
21
-2.3612204724409449
0
LINE
8
BLACK
6
CONTINUOUS
10
2.1653543307086616
20
-2.3612204724409449
11
4.5275590551181102
21
-2.3612204724409449
0
LINE
8
BLACK
6
CONTINUOUS
10
4.5275590551181102
20
-2.3612204724409449
11
4.5279357086614169
21
-2.3612953937007872
0
LINE
8
BLACK
6
CONTINUOUS
10
2.1663385826771653
20
-2.3631889763779528
11
2.1663385826771653
21
-6.7716535433070861
0
LINE
8
BLACK
6
CONTINUOUS
10
2.1663385826771653
20
-6.7716535433070861
11
2.1663385826771653
21
-6.7777918503937009
0
LINE
8
BLACK
6
CONTINUOUS
10
2.1663385826771653
20
-6.7777918503937009
11
2.1676218110236221
21
-6.7900012204724405
0
LINE
8
BLACK
6
CONTINUOUS
10
2.1676218110236221
20
-6.7900012204724405
11
2.1701742913385824
21
-6.8020095669291338
0
LINE
8
BLACK
6
CONTINUOUS
10
2.1701742913385824
20
-6.8020095669291338
11
2.1739679527559055
21
-6.8136853543307083
0
LINE
8
BLACK
6
CONTINUOUS
10
2.1739679527559055
20
-6.8136853543307083
11
2.1789613385826772
21
-6.8249005905511808
0
LINE
8
BLACK
6
CONTINUOUS
10
2.1789613385826772
20
-6.8249005905511808
11
2.1850996456692915
21
-6.8355324803149609
0
LINE
8
BLACK
6
CONTINUOUS
10
2.1850996456692915
20
-6.8355324803149609
11
2.1923156692913386
21
-6.8454644881889761
0
LINE
8
BLACK
6
CONTINUOUS
10
2.1923156692913386
20
-6.8454644881889761
11
2.2005303149606297
21
-6.8545877952755907
0
LINE
8
BLACK
6
CONTINUOUS
10
2.2005303149606297
20
-6.8545877952755907
11
2.2096536220472442
21
-6.8628024409448818
0
LINE
8
BLACK
6
CONTINUOUS
10
2.2096536220472442
20
-6.8628024409448818
11
2.21958562992126
21
-6.8700184645669289
0
LINE
8
BLACK
6
CONTINUOUS
10
2.21958562992126
20
-6.8700184645669289
11
2.2302175196850391
21
-6.8761567716535428
0
LINE
8
BLACK
6
CONTINUOUS
10
2.2302175196850391
20
-6.8761567716535428
11
2.2414327559055116
21
-6.8811501574803149
0
LINE
8
BLACK
6
CONTINUOUS
10
2.2414327559055116
20
-6.8811501574803149
11
2.2531085433070865
21
-6.8849438188976375
0
LINE
8
BLACK
6
CONTINUOUS
10
2.2531085433070865
20
-6.8849438188976375
11
2.2651168897637795
21
-6.8874962992125983
0
LINE
8
BLACK
6
CONTINUOUS
10
2.2651168897637795
20
-6.8874962992125983
11
2.2773262598425195
21
-6.8887795275590546
0
LINE
8
BLACK
6
CONTINUOUS
10
2.2773262598425195
20
-6.8887795275590546
11
2.2834645669291338
21
-6.8887795275590546
0
LINE
8
BLACK
6
CONTINUOUS
10
2.2834645669291338
20
-6.8887795275590546
11
4.409448818897638
21
-6.8887795275590546
0
LINE
8
BLACK
6
CONTINUOUS
10
4.409448818897638
20
-6.8887795275590546
11
4.4155871259842518
21
-6.8887795275590546
0
LINE
8
BLACK
6
CONTINUOUS
10
4.4155871259842518
20
-6.8887795275590546
11
4.4277964960629923
21
-6.8874962992125983
0
LINE
8
BLACK
6
CONTINUOUS
10
4.4277964960629923
20
-6.8874962992125983
11
4.4398048425196848
21
-6.8849438188976375
0
LINE
8
BLACK
6
CONTINUOUS
10
4.4398048425196848
20
-6.8849438188976375
11
4.4514806299212601
21
-6.8811501574803149
0
LINE
8
BLACK
6
CONTINUOUS
10
4.4514806299212601
20
-6.8811501574803149
11
4.4626958661417317
21
-6.8761567716535428
0
LINE
8
BLACK
6
CONTINUOUS
10
4.4626958661417317
20
-6.8761567716535428
11
4.4733277559055118
21
-6.8700184645669289
0
LINE
8
BLACK
6
CONTINUOUS
10
4.4733277559055118
20
-6.8700184645669289
11
4.4832597637795271
21
-6.8628024409448818
0
LINE
8
BLACK
6
CONTINUOUS
10
4.4832597637795271
20
-6.8628024409448818
11
4.4923830708661416
21
-6.8545877952755907
0
LINE
8
BLACK
6
CONTINUOUS
10
4.4923830708661416
20
-6.8545877952755907
11
4.5005977165354327
21
-6.8454644881889761
0
LINE
8
BLACK
6
CONTINUOUS
10
4.5005977165354327
20
-6.8454644881889761
11
4.5078137401574798
21
-6.8355324803149609
0
LINE
8
BLACK
6
CONTINUOUS
10
4.5078137401574798
20
-6.8355324803149609
11
4.5139520472440946
21
-6.8249005905511808
0
LINE
8
BLACK
6
CONTINUOUS
10
4.5139520472440946
20
-6.8249005905511808
11
4.5189454330708658
21
-6.8136853543307083
0
LINE
8
BLACK
6
CONTINUOUS
10
4.5189454330708658
20
-6.8136853543307083
11
4.5227390944881884
21
-6.8020095669291338
0
LINE
8
BLACK
6
CONTINUOUS
10
4.5227390944881884
20
-6.8020095669291338
11
4.5252915748031493
21
-6.7900012204724405
0
LINE
8
BLACK
6
CONTINUOUS
10
4.5252915748031493
20
-6.7900012204724405
11
4.5265748031496065
21
-6.7777918503937009
0
LINE
8
BLACK
6
CONTINUOUS
10
4.5265748031496065
20
-6.7777918503937009
11
4.5265748031496065
21
-6.7716535433070861
0
LINE
8
BLACK
6
CONTINUOUS
10
4.5265748031496065
20
-6.7716535433070861
11
4.5265748031496065
21
-2.3631889763779528
0
LINE
8
BLACK
6
CONTINUOUS
10
4.5265748031496065
20
-2.3631889763779528
11
2.1663385826771653
21
-2.3631889763779528
  0
ENDSEC
  0
EOF
